  0
SECTION
  2
HEADER
  9
$ACADVER
  1
AC1014
  9
$HANDSEED
  5
FFFF
  9
$MEASUREMENT
 70
     1
  0
ENDSEC
  0
SECTION
  2
TABLES
  0
TABLE
  2
VPORT
  5
8
330
0
100
AcDbSymbolTable
 70
     4
  0
VPORT
  5
2E
330
8
100
AcDbSymbolTableRecord
100
AcDbViewportTableRecord
  2
*ACTIVE
 70
     0
 10
0.0
 20
0.0
 11
1.0
 21
1.0
 12
210.0
 22
148.5
 13
0.0
 23
0.0
 14
10.0
 24
10.0
 15
10.0
 25
10.0
 16
0.0
 26
0.0
 36
1.0
 17
0.0
 27
0.0
 37
0.0
 40
341.0
 41
1.24
 42
50.0
 43
0.0
 44
0.0
 50
0.0
 51
0.0
 71
     0
 72
   100
 73
     1
 74
     3
 75
     0
 76
     0
 77
     0
 78
     0
  0
ENDTAB
  0
TABLE
  2
LTYPE
  5
5
330
0
100
AcDbSymbolTable
 70
     1
  0
LTYPE
  5
14
330
5
100
AcDbSymbolTableRecord
100
AcDbLinetypeTableRecord
  2
BYBLOCK
 70
     0
  3

 72
    65
 73
     0
 40
0.0
  0
LTYPE
  5
15
330
5
100
AcDbSymbolTableRecord
100
AcDbLinetypeTableRecord
  2
BYLAYER
 70
     0
  3

 72
    65
 73
     0
 40
0.0
  0
LTYPE
  5
16
330
5
100
AcDbSymbolTableRecord
100
AcDbLinetypeTableRecord
  2
CONTINUOUS
 70
     0
  3
Solid line
 72
    65
 73
     0
 40
0.0
  0
ENDTAB
  0
TABLE
  2
LAYER
  5
2
100
AcDbSymbolTable
 70
1
  0
LAYER
  5
50
100
AcDbSymbolTableRecord
100
AcDbLayerTableRecord
  2
0
 70
0
  6
CONTINUOUS
  0
ENDTAB
  0
TABLE
  2
STYLE
  5
3
330
0
100
AcDbSymbolTable
 70
     1
  0
STYLE
  5
11
330
3
100
AcDbSymbolTableRecord
100
AcDbTextStyleTableRecord
  2
STANDARD
 70
     0
 40
0.0
 41
1.0
 50
0.0
 71
     0
 42
2.5
  3
txt
  4

  0
ENDTAB
  0
TABLE
  2
VIEW
  5
6
330
0
100
AcDbSymbolTable
 70
     0
  0
ENDTAB
  0
TABLE
  2
UCS
  5
7
330
0
100
AcDbSymbolTable
 70
     0
  0
ENDTAB
  0
TABLE
  2
APPID
  5
9
330
0
100
AcDbSymbolTable
 70
     2
  0
APPID
  5
12
330
9
100
AcDbSymbolTableRecord
100
AcDbRegAppTableRecord
  2
ACAD
 70
     0
  0
ENDTAB
  0
TABLE
  2
DIMSTYLE
  5
A
330
0
100
AcDbSymbolTable
 70
     1
  0
DIMSTYLE
105
27
330
A
100
AcDbSymbolTableRecord
100
AcDbDimStyleTableRecord
  2
ISO-25
 70
     0
  3

  4

  5

  6

  7

 40
1.0
 41
2.5
 42
0.625
 43
3.75
 44
1.25
 45
0.0
 46
0.0
 47
0.0
 48
0.0
140
2.5
141
2.5
142
0.0
143
0.03937007874016
144
1.0
145
0.0
146
1.0
147
0.625
 71
     0
 72
     0
 73
     0
 74
     0
 75
     0
 76
     0
 77
     1
 78
     8
170
     0
171
     3
172
     1
173
     0
174
     0
175
     0
176
     0
177
     0
178
     0
270
     2
271
     2
272
     2
273
     2
274
     3
340
11
275
     0
280
     0
281
     0
282
     0
283
     0
284
     8
285
     0
286
     0
287
     3
288
     0
  0
ENDTAB
  0
TABLE
  2
BLOCK_RECORD
  5
1
330
0
100
AcDbSymbolTable
 70
     1
  0
BLOCK_RECORD
  5
1F
330
1
100
AcDbSymbolTableRecord
100
AcDbBlockTableRecord
  2
*MODEL_SPACE
  0
BLOCK_RECORD
  5
1B
330
1
100
AcDbSymbolTableRecord
100
AcDbBlockTableRecord
  2
*PAPER_SPACE
  0
ENDTAB
  0
ENDSEC
  0
SECTION
  2
BLOCKS
  0
BLOCK
  5
20
330
1F
100
AcDbEntity
  8
0
100
AcDbBlockBegin
  2
*MODEL_SPACE
 70
     0
 10
0.0
 20
0.0
 30
0.0
  3
*MODEL_SPACE
  1

  0
ENDBLK
  5
21
330
1F
100
AcDbEntity
  8
0
100
AcDbBlockEnd
  0
BLOCK
  5
1C
330
1B
100
AcDbEntity
 67
     1
  8
0
100
AcDbBlockBegin
  2
*PAPER_SPACE
  1

  0
ENDBLK
  5
1D
330
1B
100
AcDbEntity
 67
     1
  8
0
100
AcDbBlockEnd
  0
ENDSEC
  0
SECTION
  2
ENTITIES
  0
LWPOLYLINE
  5
100
100
AcDbEntity
  8
0
 62
7
100
AcDbPolyline
 90
17
 70
0
 10
65.008465
 20
34.640848
 30
0.0
 10
64.472039
 20
34.532264
 30
0.0
 10
64.033566
 20
34.236360
 30
0.0
 10
63.737720
 20
33.797928
 30
0.0
 10
63.629177
 20
33.261728
 30
0.0
 10
63.737720
 20
32.725576
 30
0.0
 10
64.033566
 20
32.287248
 30
0.0
 10
64.472039
 20
31.991456
 30
0.0
 10
65.008465
 20
31.882920
 30
0.0
 10
65.544426
 20
31.991456
 30
0.0
 10
65.982495
 20
32.287248
 30
0.0
 10
66.278054
 20
32.725576
 30
0.0
 10
66.386489
 20
33.261728
 30
0.0
 10
66.278033
 20
33.797928
 30
0.0
 10
65.982438
 20
34.236360
 30
0.0
 10
65.544362
 20
34.532264
 30
0.0
 10
65.008465
 20
34.640848
 30
0.0
  0
LWPOLYLINE
  5
101
100
AcDbEntity
  8
0
 62
7
100
AcDbPolyline
 90
17
 70
0
 10
55.416873
 20
31.882920
 30
0.0
 10
55.953298
 20
31.991456
 30
0.0
 10
56.391772
 20
32.287248
 30
0.0
 10
56.687618
 20
32.725576
 30
0.0
 10
56.796161
 20
33.261728
 30
0.0
 10
56.687618
 20
33.797928
 30
0.0
 10
56.391772
 20
34.236360
 30
0.0
 10
55.953298
 20
34.532264
 30
0.0
 10
55.416873
 20
34.640848
 30
0.0
 10
54.880775
 20
34.532264
 30
0.0
 10
54.442718
 20
34.236360
 30
0.0
 10
54.147231
 20
33.797928
 30
0.0
 10
54.038841
 20
33.261728
 30
0.0
 10
54.147231
 20
32.725576
 30
0.0
 10
54.442719
 20
32.287248
 30
0.0
 10
54.880775
 20
31.991456
 30
0.0
 10
55.416873
 20
31.882920
 30
0.0
  0
LWPOLYLINE
  5
102
100
AcDbEntity
  8
0
 62
7
100
AcDbPolyline
 90
29
 70
0
 10
73.998697
 20
2.854912
 30
0.0
 10
73.980665
 20
2.856512
 30
0.0
 10
73.963233
 20
2.859712
 30
0.0
 10
73.946129
 20
2.864512
 30
0.0
 10
73.929089
 20
2.869312
 30
0.0
 10
73.720744
 20
2.809712
 30
0.0
 10
73.551930
 20
2.684472
 30
0.0
 10
73.438797
 20
2.507768
 30
0.0
 10
73.397493
 20
2.293760
 30
0.0
 10
73.443693
 20
2.065208
 30
0.0
 10
73.569647
 20
1.878472
 30
0.0
 10
73.756383
 20
1.752520
 30
0.0
 10
73.984933
 20
1.706360
 30
0.0
 10
74.213546
 20
1.752520
 30
0.0
 10
74.400276
 20
1.878472
 30
0.0
 10
74.526194
 20
2.065208
 30
0.0
 10
74.572370
 20
2.293760
 30
0.0
 10
74.532266
 20
2.504256
 30
0.0
 10
74.422302
 20
2.678704
 30
0.0
 10
74.257994
 20
2.803936
 30
0.0
 10
74.054856
 20
2.866816
 30
0.0
 10
74.041040
 20
2.862816
 30
0.0
 10
74.027192
 20
2.858816
 30
0.0
 10
74.013136
 20
2.856416
 30
0.0
 10
73.998688
 20
2.855616
 30
0.0
 10
73.998684
 20
2.855608
 30
0.0
 10
73.998680
 20
2.855600
 30
0.0
 10
73.998676
 20
2.855592
 30
0.0
 10
73.998697
 20
2.854912
 30
0.0
  0
LWPOLYLINE
  5
103
100
AcDbEntity
  8
0
 62
7
100
AcDbPolyline
 90
29
 70
0
 10
46.478531
 20
2.854912
 30
0.0
 10
46.458499
 20
2.856512
 30
0.0
 10
46.438979
 20
2.860512
 30
0.0
 10
46.419931
 20
2.865312
 30
0.0
 10
46.401323
 20
2.870912
 30
0.0
 10
46.190101
 20
2.812832
 30
0.0
 10
46.018806
 20
2.687408
 30
0.0
 10
45.903935
 20
2.509392
 30
0.0
 10
45.861983
 20
2.293480
 30
0.0
 10
45.908183
 20
2.064928
 30
0.0
 10
46.034154
 20
1.878192
 30
0.0
 10
46.220938
 20
1.752240
 30
0.0
 10
46.449579
 20
1.706000
 30
0.0
 10
46.678154
 20
1.752240
 30
0.0
 10
46.864945
 20
1.878192
 30
0.0
 10
46.990953
 20
2.064928
 30
0.0
 10
47.037177
 20
2.293480
 30
0.0
 10
46.997721
 20
2.502192
 30
0.0
 10
46.889428
 20
2.675376
 30
0.0
 10
46.727412
 20
2.800360
 30
0.0
 10
46.526787
 20
2.864440
 30
0.0
 10
46.514643
 20
2.862040
 30
0.0
 10
46.502835
 20
2.858840
 30
0.0
 10
46.490939
 20
2.856440
 30
0.0
 10
46.478523
 20
2.855640
 30
0.0
 10
46.478523
 20
2.855640
 30
0.0
 10
46.478524
 20
2.855640
 30
0.0
 10
46.478524
 20
2.855648
 30
0.0
 10
46.478531
 20
2.854912
 30
0.0
  0
LWPOLYLINE
  5
104
100
AcDbEntity
  8
0
 62
7
100
AcDbPolyline
 90
29
 70
0
 10
60.795761
 20
41.473336
 30
0.0
 10
60.796540
 20
41.476536
 30
0.0
 10
60.797660
 20
41.479736
 30
0.0
 10
60.798860
 20
41.482936
 30
0.0
 10
60.799740
 20
41.486136
 30
0.0
 10
60.753260
 20
41.713648
 30
0.0
 10
60.627368
 20
41.899640
 30
0.0
 10
60.440962
 20
42.025152
 30
0.0
 10
60.212935
 20
42.071232
 30
0.0
 10
59.984659
 20
42.024992
 30
0.0
 10
59.798062
 20
41.899072
 30
0.0
 10
59.672160
 20
41.712520
 30
0.0
 10
59.625968
 20
41.484408
 30
0.0
 10
59.672160
 20
41.255904
 30
0.0
 10
59.798062
 20
41.069104
 30
0.0
 10
59.984659
 20
40.943056
 30
0.0
 10
60.212935
 20
40.896816
 30
0.0
 10
60.436794
 20
40.941456
 30
0.0
 10
60.620147
 20
41.063232
 30
0.0
 10
60.745805
 20
41.244040
 30
0.0
 10
60.796573
 20
41.465760
 30
0.0
 10
60.796566
 20
41.467360
 30
0.0
 10
60.796397
 20
41.468960
 30
0.0
 10
60.796197
 20
41.470560
 30
0.0
 10
60.796101
 20
41.472160
 30
0.0
 10
60.796011
 20
41.472184
 30
0.0
 10
60.795921
 20
41.472200
 30
0.0
 10
60.795831
 20
41.472224
 30
0.0
 10
60.795761
 20
41.473336
 30
0.0
  0
LWPOLYLINE
  5
105
100
AcDbEntity
  8
0
 62
7
100
AcDbPolyline
 90
17
 70
0
 10
42.963696
 20
1.160000
 30
0.0
 10
42.512417
 20
1.251216
 30
0.0
 10
42.143724
 20
1.499952
 30
0.0
 10
41.895054
 20
1.868832
 30
0.0
 10
41.803845
 20
2.320480
 30
0.0
 10
41.895054
 20
2.772160
 30
0.0
 10
42.143724
 20
3.140976
 30
0.0
 10
42.512417
 20
3.389624
 30
0.0
 10
42.963696
 20
3.480792
 30
0.0
 10
43.415349
 20
3.389600
 30
0.0
 10
43.784401
 20
3.140912
 30
0.0
 10
44.033340
 20
2.772096
 30
0.0
 10
44.124655
 20
2.320480
 30
0.0
 10
44.033340
 20
1.868832
 30
0.0
 10
43.784401
 20
1.499952
 30
0.0
 10
43.415349
 20
1.251216
 30
0.0
 10
42.963696
 20
1.160000
 30
0.0
  0
LWPOLYLINE
  5
106
100
AcDbEntity
  8
0
 62
7
100
AcDbPolyline
 90
253
 70
0
 10
67.100817
 20
1.160000
 30
0.0
 10
66.660190
 20
1.249192
 30
0.0
 10
66.299970
 20
1.492280
 30
0.0
 10
66.056894
 20
1.852544
 30
0.0
 10
65.967705
 20
2.293264
 30
0.0
 10
66.035777
 20
2.679608
 30
0.0
 10
66.223830
 20
3.008848
 30
0.0
 10
66.507609
 20
3.256936
 30
0.0
 10
66.862863
 20
3.399792
 30
0.0
 10
66.862863
 20
5.979536
 30
0.0
 10
66.862863
 20
8.559272
 30
0.0
 10
66.862863
 20
11.139016
 30
0.0
 10
66.862863
 20
13.718760
 30
0.0
 10
65.469334
 20
16.443544
 30
0.0
 10
64.075803
 20
19.168320
 30
0.0
 10
62.682274
 20
21.893104
 30
0.0
 10
61.288743
 20
24.617888
 30
0.0
 10
61.130429
 20
24.300208
 30
0.0
 10
60.885937
 20
24.048648
 30
0.0
 10
60.573810
 20
23.883112
 30
0.0
 10
60.212591
 20
23.823512
 30
0.0
 10
59.851786
 20
23.882952
 30
0.0
 10
59.540107
 20
24.048144
 30
0.0
 10
59.295946
 20
24.299248
 30
0.0
 10
59.137695
 20
24.616440
 30
0.0
 10
57.756505
 20
21.892088
 30
0.0
 10
56.375315
 20
19.167744
 30
0.0
 10
54.994125
 20
16.443392
 30
0.0
 10
53.612935
 20
13.719048
 30
0.0
 10
53.612935
 20
11.135864
 30
0.0
 10
53.612935
 20
8.552680
 30
0.0
 10
53.612935
 20
5.969504
 30
0.0
 10
53.612935
 20
3.386320
 30
0.0
 10
53.952699
 20
3.236904
 30
0.0
 10
54.223062
 20
2.990512
 30
0.0
 10
54.401671
 20
2.668720
 30
0.0
 10
54.466175
 20
2.293080
 30
0.0
 10
54.377034
 20
1.852360
 30
0.0
 10
54.134066
 20
1.492096
 30
0.0
 10
53.773953
 20
1.249008
 30
0.0
 10
53.333375
 20
1.159816
 30
0.0
 10
52.892657
 20
1.249008
 30
0.0
 10
52.532388
 20
1.492096
 30
0.0
 10
52.289295
 20
1.852360
 30
0.0
 10
52.200103
 20
2.293080
 30
0.0
 10
52.277679
 20
2.703568
 30
0.0
 10
52.490617
 20
3.045984
 30
0.0
 10
52.809221
 20
3.291792
 30
0.0
 10
53.203797
 20
3.412424
 30
0.0
 10
53.209157
 20
6.024440
 30
0.0
 10
53.214517
 20
8.636456
 30
0.0
 10
53.219877
 20
11.248472
 30
0.0
 10
53.225237
 20
13.860488
 30
0.0
 10
54.613269
 20
16.598400
 30
0.0
 10
56.001301
 20
19.336312
 30
0.0
 10
57.389333
 20
22.074232
 30
0.0
 10
58.777365
 20
24.812144
 30
0.0
 10
57.408287
 20
25.189584
 30
0.0
 10
56.155556
 20
25.790008
 30
0.0
 10
55.039875
 20
26.589832
 30
0.0
 10
54.081949
 20
27.565480
 30
0.0
 10
52.223751
 20
27.565480
 30
0.0
 10
50.365554
 20
27.565480
 30
0.0
 10
48.507356
 20
27.565480
 30
0.0
 10
46.649158
 20
27.565480
 30
0.0
 10
46.542906
 20
27.586920
 30
0.0
 10
46.456159
 20
27.645320
 30
0.0
 10
46.397679
 20
27.732064
 30
0.0
 10
46.376239
 20
27.838384
 30
0.0
 10
46.397655
 20
27.944568
 30
0.0
 10
46.456095
 20
28.031320
 30
0.0
 10
46.542835
 20
28.089800
 30
0.0
 10
46.649154
 20
28.111240
 30
0.0
 10
48.404079
 20
28.111240
 30
0.0
 10
50.159005
 20
28.111240
 30
0.0
 10
51.913930
 20
28.111240
 30
0.0
 10
53.668856
 20
28.111240
 30
0.0
 10
53.344810
 20
28.620256
 30
0.0
 10
53.059167
 20
29.153792
 30
0.0
 10
52.813956
 20
29.710256
 30
0.0
 10
52.611208
 20
30.288064
 30
0.0
 10
51.669056
 20
30.288064
 30
0.0
 10
50.726904
 20
30.288064
 30
0.0
 10
49.784752
 20
30.288064
 30
0.0
 10
48.842600
 20
30.288064
 30
0.0
 10
48.736242
 20
30.309504
 30
0.0
 10
48.649566
 20
30.367904
 30
0.0
 10
48.591214
 20
30.454592
 30
0.0
 10
48.569846
 20
30.560816
 30
0.0
 10
48.591214
 20
30.667064
 30
0.0
 10
48.649558
 20
30.753816
 30
0.0
 10
48.736235
 20
30.812296
 30
0.0
 10
48.842593
 20
30.833736
 30
0.0
 10
49.748753
 20
30.833736
 30
0.0
 10
50.654913
 20
30.833736
 30
0.0
 10
51.561073
 20
30.833736
 30
0.0
 10
52.467233
 20
30.833736
 30
0.0
 10
52.377566
 20
31.272720
 30
0.0
 10
52.310798
 20
31.719240
 30
0.0
 10
52.269126
 20
32.173000
 30
0.0
 10
52.254750
 20
32.633696
 30
0.0
 10
52.256510
 20
32.728368
 30
0.0
 10
52.260830
 20
32.822680
 30
0.0
 10
52.266350
 20
32.916880
 30
0.0
 10
52.271710
 20
33.011192
 30
0.0
 10
52.026323
 20
33.011192
 30
0.0
 10
51.780938
 20
33.011192
 30
0.0
 10
51.535551
 20
33.011192
 30
0.0
 10
51.290166
 20
33.011192
 30
0.0
 10
51.183870
 20
33.032632
 30
0.0
 10
51.097185
 20
33.091112
 30
0.0
 10
51.038801
 20
33.177864
 30
0.0
 10
51.017409
 20
33.284048
 30
0.0
 10
51.038801
 20
33.390208
 30
0.0
 10
51.097185
 20
33.476904
 30
0.0
 10
51.183870
 20
33.535384
 30
0.0
 10
51.290166
 20
33.556824
 30
0.0
 10
51.546350
 20
33.556824
 30
0.0
 10
51.802534
 20
33.556824
 30
0.0
 10
52.058718
 20
33.556824
 30
0.0
 10
52.314902
 20
33.556824
 30
0.0
 10
52.536586
 20
34.711944
 30
0.0
 10
52.923027
 20
35.818408
 30
0.0
 10
53.468533
 20
36.857416
 30
0.0
 10
54.167406
 20
37.810160
 30
0.0
 10
54.252830
 20
37.876720
 30
0.0
 10
54.353874
 20
37.904480
 30
0.0
 10
54.458034
 20
37.892480
 30
0.0
 10
54.552806
 20
37.839760
 30
0.0
 10
54.619398
 20
37.754432
 30
0.0
 10
54.647182
 20
37.653608
 30
0.0
 10
54.635222
 20
37.549664
 30
0.0
 10
54.582566
 20
37.455000
 30
0.0
 10
53.819139
 20
36.384608
 30
0.0
 10
53.260430
 20
35.204608
 30
0.0
 10
52.917264
 20
33.944512
 30
0.0
 10
52.800470
 20
32.633840
 30
0.0
 10
53.280771
 20
30.002704
 30
0.0
 10
54.609662
 20
27.780376
 30
0.0
 10
56.619120
 20
26.152936
 30
0.0
 10
59.141126
 20
25.306480
 30
0.0
 10
59.300930
 20
25.619680
 30
0.0
 10
59.544786
 20
25.867392
 30
0.0
 10
59.854706
 20
26.030240
 30
0.0
 10
60.212694
 20
26.088800
 30
0.0
 10
60.570962
 20
26.030240
 30
0.0
 10
60.881041
 20
25.867392
 30
0.0
 10
61.124998
 20
25.619680
 30
0.0
 10
61.284902
 20
25.306480
 30
0.0
 10
63.807075
 20
26.152736
 30
0.0
 10
65.816286
 20
27.779840
 30
0.0
 10
67.144812
 20
30.002104
 30
0.0
 10
67.624926
 20
32.633840
 30
0.0
 10
67.503208
 20
33.973896
 30
0.0
 10
67.145641
 20
35.258600
 30
0.0
 10
66.563599
 20
36.457800
 30
0.0
 10
65.768462
 20
37.541376
 30
0.0
 10
65.714038
 20
37.635120
 30
0.0
 10
65.700398
 20
37.738840
 30
0.0
 10
65.726694
 20
37.840104
 30
0.0
 10
65.792062
 20
37.926464
 30
0.0
 10
65.885784
 20
37.981184
 30
0.0
 10
65.989371
 20
37.994944
 30
0.0
 10
66.090616
 20
37.968624
 30
0.0
 10
66.177310
 20
37.903024
 30
0.0
 10
66.908498
 20
36.934216
 30
0.0
 10
67.478502
 20
35.874112
 30
0.0
 10
67.881168
 20
34.741952
 30
0.0
 10
68.110342
 20
33.556976
 30
0.0
 10
68.362095
 20
33.556976
 30
0.0
 10
68.613850
 20
33.556976
 30
0.0
 10
68.865603
 20
33.556976
 30
0.0
 10
69.117358
 20
33.556976
 30
0.0
 10
69.223585
 20
33.535536
 30
0.0
 10
69.310278
 20
33.477056
 30
0.0
 10
69.368702
 20
33.390360
 30
0.0
 10
69.390118
 20
33.284200
 30
0.0
 10
69.368702
 20
33.178016
 30
0.0
 10
69.310278
 20
33.091264
 30
0.0
 10
69.223585
 20
33.032784
 30
0.0
 10
69.117358
 20
33.011344
 30
0.0
 10
68.876402
 20
33.011344
 30
0.0
 10
68.635446
 20
33.011344
 30
0.0
 10
68.394490
 20
33.011344
 30
0.0
 10
68.153534
 20
33.011344
 30
0.0
 10
68.158574
 20
32.917120
 30
0.0
 10
68.164174
 20
32.822952
 30
0.0
 10
68.168734
 20
32.728608
 30
0.0
 10
68.170654
 20
32.633848
 30
0.0
 10
68.156254
 20
32.173152
 30
0.0
 10
68.114542
 20
31.719392
 30
0.0
 10
68.047766
 20
31.272872
 30
0.0
 10
67.958170
 20
30.833888
 30
0.0
 10
68.859858
 20
30.833888
 30
0.0
 10
69.761546
 20
30.833888
 30
0.0
 10
70.663234
 20
30.833888
 30
0.0
 10
71.564922
 20
30.833888
 30
0.0
 10
71.671284
 20
30.812448
 30
0.0
 10
71.757962
 20
30.753968
 30
0.0
 10
71.816314
 20
30.667224
 30
0.0
 10
71.837682
 20
30.560968
 30
0.0
 10
71.816314
 20
30.454744
 30
0.0
 10
71.757962
 20
30.368056
 30
0.0
 10
71.671284
 20
30.309656
 30
0.0
 10
71.564922
 20
30.288216
 30
0.0
 10
70.627359
 20
30.288216
 30
0.0
 10
69.689798
 20
30.288216
 30
0.0
 10
68.752235
 20
30.288216
 30
0.0
 10
67.814674
 20
30.288216
 30
0.0
 10
67.611923
 20
29.710408
 30
0.0
 10
67.366694
 20
29.153936
 30
0.0
 10
67.081004
 20
28.620408
 30
0.0
 10
66.756866
 20
28.111392
 30
0.0
 10
68.507203
 20
28.111392
 30
0.0
 10
70.257542
 20
28.111392
 30
0.0
 10
72.007879
 20
28.111392
 30
0.0
 10
73.758218
 20
28.111392
 30
0.0
 10
73.864600
 20
28.089952
 30
0.0
 10
73.951331
 20
28.031472
 30
0.0
 10
74.009731
 20
27.944720
 30
0.0
 10
74.031123
 20
27.838536
 30
0.0
 10
74.009731
 20
27.732216
 30
0.0
 10
73.951331
 20
27.645472
 30
0.0
 10
73.864600
 20
27.587072
 30
0.0
 10
73.758218
 20
27.565632
 30
0.0
 10
71.904766
 20
27.565632
 30
0.0
 10
70.051314
 20
27.565632
 30
0.0
 10
68.197862
 20
27.565632
 30
0.0
 10
66.344410
 20
27.565632
 30
0.0
 10
65.386498
 20
26.589984
 30
0.0
 10
64.270683
 20
25.790024
 30
0.0
 10
63.017760
 20
25.189488
 30
0.0
 10
61.648522
 20
24.812136
 30
0.0
 10
63.054590
 20
22.051120
 30
0.0
 10
64.460658
 20
19.290112
 30
0.0
 10
65.866726
 20
16.529096
 30
0.0
 10
67.272794
 20
13.768088
 30
0.0
 10
67.272794
 20
11.178216
 30
0.0
 10
67.272794
 20
8.588352
 30
0.0
 10
67.272794
 20
5.998480
 30
0.0
 10
67.272794
 20
3.408616
 30
0.0
 10
67.652110
 20
3.278616
 30
0.0
 10
67.957041
 20
3.031656
 30
0.0
 10
68.160132
 20
2.694376
 30
0.0
 10
68.233932
 20
2.293392
 30
0.0
 10
68.144787
 20
1.852584
 30
0.0
 10
67.901787
 20
1.492272
 30
0.0
 10
67.541581
 20
1.249160
 30
0.0
 10
67.100820
 20
1.159968
 30
0.0
 10
67.100794
 20
1.159968
 30
0.0
 10
67.100768
 20
1.159968
 30
0.0
 10
67.100742
 20
1.159976
 30
0.0
 10
67.100817
 20
1.160000
 30
0.0
  0
LWPOLYLINE
  5
107
100
AcDbEntity
  8
0
 62
7
100
AcDbPolyline
 90
17
 70
0
 10
65.008465
 20
31.337416
 30
0.0
 10
64.259982
 20
31.488848
 30
0.0
 10
63.648078
 20
31.901592
 30
0.0
 10
63.235165
 20
32.513328
 30
0.0
 10
63.083657
 20
33.261728
 30
0.0
 10
63.235165
 20
34.010136
 30
0.0
 10
63.648078
 20
34.622040
 30
0.0
 10
64.259982
 20
35.034992
 30
0.0
 10
65.008465
 20
35.186520
 30
0.0
 10
65.756506
 20
35.035016
 30
0.0
 10
66.368058
 20
34.622104
 30
0.0
 10
66.780738
 20
34.010208
 30
0.0
 10
66.932161
 20
33.261728
 30
0.0
 10
66.780738
 20
32.513328
 30
0.0
 10
66.368058
 20
31.901592
 30
0.0
 10
65.756506
 20
31.488848
 30
0.0
 10
65.008465
 20
31.337416
 30
0.0
  0
LWPOLYLINE
  5
108
100
AcDbEntity
  8
0
 62
7
100
AcDbPolyline
 90
33
 70
0
 10
65.090897
 20
30.785568
 30
0.0
 10
64.228298
 20
29.529864
 30
0.0
 10
63.082178
 20
28.580568
 30
0.0
 10
61.720842
 20
27.979984
 30
0.0
 10
60.212593
 20
27.770392
 30
0.0
 10
58.693086
 20
27.982664
 30
0.0
 10
57.324769
 20
28.590952
 30
0.0
 10
56.176237
 20
29.552488
 30
0.0
 10
55.316089
 20
30.824488
 30
0.0
 10
55.288265
 20
30.929352
 30
0.0
 10
55.302433
 20
31.032976
 30
0.0
 10
55.354553
 20
31.123600
 30
0.0
 10
55.440599
 20
31.189520
 30
0.0
 10
55.545355
 20
31.216960
 30
0.0
 10
55.648924
 20
31.202640
 30
0.0
 10
55.739618
 20
31.150640
 30
0.0
 10
55.805754
 20
31.064968
 30
0.0
 10
56.580002
 20
29.920144
 30
0.0
 10
57.613742
 20
29.054680
 30
0.0
 10
58.845198
 20
28.507136
 30
0.0
 10
60.212594
 20
28.316056
 30
0.0
 10
61.569797
 20
28.504704
 30
0.0
 10
62.794963
 20
29.045288
 30
0.0
 10
63.826422
 20
29.899784
 30
0.0
 10
64.602498
 20
31.030160
 30
0.0
 10
64.669810
 20
31.115624
 30
0.0
 10
64.761472
 20
31.166904
 30
0.0
 10
64.865095
 20
31.180184
 30
0.0
 10
64.968286
 20
31.151864
 30
0.0
 10
65.053922
 20
31.085064
 30
0.0
 10
65.105530
 20
30.993960
 30
0.0
 10
65.119170
 20
30.890224
 30
0.0
 10
65.090897
 20
30.785568
 30
0.0
  0
LWPOLYLINE
  5
109
100
AcDbEntity
  8
0
 62
7
100
AcDbPolyline
 90
41
 70
0
 10
64.946129
 20
35.340304
 30
0.0
 10
64.915849
 20
35.326944
 30
0.0
 10
64.884721
 20
35.317584
 30
0.0
 10
64.853049
 20
35.311984
 30
0.0
 10
64.821145
 20
35.310384
 30
0.0
 10
64.748361
 20
35.320304
 30
0.0
 10
64.680993
 20
35.349104
 30
0.0
 10
64.623025
 20
35.395584
 30
0.0
 10
64.578457
 20
35.458464
 30
0.0
 10
63.799583
 20
36.569032
 30
0.0
 10
62.771674
 20
37.408640
 30
0.0
 10
61.555810
 20
37.939864
 30
0.0
 10
60.213073
 20
38.125256
 30
0.0
 10
58.874951
 20
37.941008
 30
0.0
 10
57.661986
 20
37.413032
 30
0.0
 10
56.635196
 20
36.578504
 30
0.0
 10
55.855601
 20
35.474600
 30
0.0
 10
55.787433
 20
35.390296
 30
0.0
 10
55.695360
 20
35.340456
 30
0.0
 10
55.591450
 20
35.328536
 30
0.0
 10
55.487764
 20
35.357896
 30
0.0
 10
55.403287
 20
35.425976
 30
0.0
 10
55.353279
 20
35.517840
 30
0.0
 10
55.341359
 20
35.621752
 30
0.0
 10
55.371151
 20
35.725928
 30
0.0
 10
56.237409
 20
36.952552
 30
0.0
 10
57.378525
 20
37.879824
 30
0.0
 10
58.726434
 20
38.466456
 30
0.0
 10
60.213071
 20
38.671176
 30
0.0
 10
61.705167
 20
38.465200
 30
0.0
 10
63.056296
 20
37.874960
 30
0.0
 10
64.198585
 20
36.942016
 30
0.0
 10
65.064159
 20
35.707896
 30
0.0
 10
65.093631
 20
35.603704
 30
0.0
 10
65.081319
 20
35.499832
 30
0.0
 10
65.030919
 20
35.408144
 30
0.0
 10
64.946126
 20
35.340544
 30
0.0
 10
64.946126
 20
35.340544
 30
0.0
 10
64.946126
 20
35.340552
 30
0.0
 10
64.946126
 20
35.340552
 30
0.0
 10
64.946129
 20
35.340304
 30
0.0
  0
LWPOLYLINE
  5
10a
100
AcDbEntity
  8
0
 62
7
100
AcDbPolyline
 90
17
 70
0
 10
55.416873
 20
35.186520
 30
0.0
 10
56.165442
 20
35.035016
 30
0.0
 10
56.777393
 20
34.622104
 30
0.0
 10
57.190323
 20
34.010208
 30
0.0
 10
57.341833
 20
33.261728
 30
0.0
 10
57.190323
 20
32.513328
 30
0.0
 10
56.777393
 20
31.901592
 30
0.0
 10
56.165442
 20
31.488848
 30
0.0
 10
55.416873
 20
31.337416
 30
0.0
 10
54.668698
 20
31.488848
 30
0.0
 10
54.057158
 20
31.901592
 30
0.0
 10
53.644549
 20
32.513328
 30
0.0
 10
53.493169
 20
33.261728
 30
0.0
 10
53.644549
 20
34.010136
 30
0.0
 10
54.057158
 20
34.622040
 30
0.0
 10
54.668698
 20
35.034992
 30
0.0
 10
55.416873
 20
35.186520
 30
0.0
  0
LWPOLYLINE
  5
10b
100
AcDbEntity
  8
0
 62
7
100
AcDbPolyline
 90
309
 70
0
 10
75.735865
 20
26.411528
 30
0.0
 10
75.692369
 20
26.361928
 30
0.0
 10
75.638881
 20
26.324808
 30
0.0
 10
75.578033
 20
26.301448
 30
0.0
 10
75.512473
 20
26.293288
 30
0.0
 10
73.345009
 20
26.283208
 30
0.0
 10
71.177545
 20
26.273208
 30
0.0
 10
69.010081
 20
26.263128
 30
0.0
 10
66.842617
 20
26.253048
 30
0.0
 10
68.690174
 20
23.166832
 30
0.0
 10
70.537733
 20
20.080616
 30
0.0
 10
72.385291
 20
16.994400
 30
0.0
 10
74.232849
 20
13.908184
 30
0.0
 10
74.249561
 20
13.875224
 30
0.0
 10
74.261601
 20
13.840584
 30
0.0
 10
74.268881
 20
13.804664
 30
0.0
 10
74.271361
 20
13.767864
 30
0.0
 10
74.271361
 20
11.172024
 30
0.0
 10
74.271361
 20
8.576184
 30
0.0
 10
74.271361
 20
5.980344
 30
0.0
 10
74.271361
 20
3.384504
 30
0.0
 10
74.608433
 20
3.233720
 30
0.0
 10
74.876579
 20
2.987592
 30
0.0
 10
75.053683
 20
2.667128
 30
0.0
 10
75.117635
 20
2.293328
 30
0.0
 10
75.028541
 20
1.852608
 30
0.0
 10
74.785650
 20
1.492344
 30
0.0
 10
74.425554
 20
1.249256
 30
0.0
 10
73.984843
 20
1.160064
 30
0.0
 10
73.544214
 20
1.249256
 30
0.0
 10
73.183994
 20
1.492344
 30
0.0
 10
72.940920
 20
1.852608
 30
0.0
 10
72.851731
 20
2.293328
 30
0.0
 10
72.918051
 20
2.674296
 30
0.0
 10
73.101446
 20
2.999752
 30
0.0
 10
73.378552
 20
3.247048
 30
0.0
 10
73.726008
 20
3.393528
 30
0.0
 10
73.726008
 20
5.968288
 30
0.0
 10
73.726008
 20
8.543040
 30
0.0
 10
73.726008
 20
11.117800
 30
0.0
 10
73.726008
 20
13.692560
 30
0.0
 10
71.826634
 20
16.865272
 30
0.0
 10
69.927260
 20
20.037992
 30
0.0
 10
68.027886
 20
23.210704
 30
0.0
 10
66.128512
 20
26.383424
 30
0.0
 10
66.099944
 20
26.449664
 30
0.0
 10
66.089616
 20
26.519984
 30
0.0
 10
66.097736
 20
26.590544
 30
0.0
 10
66.124520
 20
26.657584
 30
0.0
 10
66.167992
 20
26.715424
 30
0.0
 10
66.223976
 20
26.759024
 30
0.0
 10
66.289360
 20
26.786624
 30
0.0
 10
66.361048
 20
26.796464
 30
0.0
 10
68.546626
 20
26.806544
 30
0.0
 10
70.732204
 20
26.816624
 30
0.0
 10
72.917782
 20
26.826704
 30
0.0
 10
75.103360
 20
26.836784
 30
0.0
 10
74.844010
 20
27.352104
 30
0.0
 10
74.535163
 20
27.874312
 30
0.0
 10
74.185053
 20
28.400288
 30
0.0
 10
73.801912
 20
28.926904
 30
0.0
 10
72.372468
 20
28.926904
 30
0.0
 10
70.943024
 20
28.926904
 30
0.0
 10
69.513580
 20
28.926904
 30
0.0
 10
68.084136
 20
28.926904
 30
0.0
 10
67.977774
 20
28.948344
 30
0.0
 10
67.891095
 20
29.006744
 30
0.0
 10
67.832743
 20
29.093440
 30
0.0
 10
67.811375
 20
29.199664
 30
0.0
 10
67.832743
 20
29.305824
 30
0.0
 10
67.891095
 20
29.392520
 30
0.0
 10
67.977774
 20
29.451000
 30
0.0
 10
68.084136
 20
29.472440
 30
0.0
 10
69.407816
 20
29.472440
 30
0.0
 10
70.731496
 20
29.472440
 30
0.0
 10
72.055176
 20
29.472440
 30
0.0
 10
73.378856
 20
29.472440
 30
0.0
 10
72.904080
 20
30.042128
 30
0.0
 10
72.414100
 20
30.600360
 30
0.0
 10
71.917148
 20
31.142760
 30
0.0
 10
71.421456
 20
31.664920
 30
0.0
 10
71.402968
 20
31.659320
 30
0.0
 10
71.384120
 20
31.654520
 30
0.0
 10
71.364760
 20
31.651320
 30
0.0
 10
71.344744
 20
31.649720
 30
0.0
 10
70.665066
 20
31.649720
 30
0.0
 10
69.985388
 20
31.649720
 30
0.0
 10
69.305710
 20
31.649720
 30
0.0
 10
68.626032
 20
31.649720
 30
0.0
 10
68.519738
 20
31.671160
 30
0.0
 10
68.433055
 20
31.729640
 30
0.0
 10
68.374671
 20
31.816344
 30
0.0
 10
68.353279
 20
31.922504
 30
0.0
 10
68.374671
 20
32.028664
 30
0.0
 10
68.433055
 20
32.115360
 30
0.0
 10
68.519738
 20
32.173840
 30
0.0
 10
68.626032
 20
32.195280
 30
0.0
 10
69.195438
 20
32.195280
 30
0.0
 10
69.764844
 20
32.195280
 30
0.0
 10
70.334250
 20
32.195280
 30
0.0
 10
70.903656
 20
32.195280
 30
0.0
 10
70.703050
 20
32.398440
 30
0.0
 10
70.506302
 20
32.596840
 30
0.0
 10
70.314777
 20
32.789336
 30
0.0
 10
70.129840
 20
32.974784
 30
0.0
 10
69.678933
 20
33.426704
 30
0.0
 10
69.308461
 20
33.804280
 30
0.0
 10
69.013782
 20
34.116480
 30
0.0
 10
68.790256
 20
34.372264
 30
0.0
 10
68.694024
 20
34.372264
 30
0.0
 10
68.597792
 20
34.372264
 30
0.0
 10
68.501560
 20
34.372264
 30
0.0
 10
68.405328
 20
34.372264
 30
0.0
 10
68.298920
 20
34.393704
 30
0.0
 10
68.212134
 20
34.452184
 30
0.0
 10
68.153678
 20
34.538880
 30
0.0
 10
68.132254
 20
34.645032
 30
0.0
 10
68.153678
 20
34.751312
 30
0.0
 10
68.212134
 20
34.838112
 30
0.0
 10
68.298920
 20
34.896672
 30
0.0
 10
68.405328
 20
34.918112
 30
0.0
 10
68.424824
 20
34.918112
 30
0.0
 10
68.444328
 20
34.918112
 30
0.0
 10
68.463824
 20
34.918112
 30
0.0
 10
68.483328
 20
34.918112
 30
0.0
 10
67.452346
 20
37.235184
 30
0.0
 10
65.822540
 20
39.118304
 30
0.0
 10
63.723942
 20
40.457528
 30
0.0
 10
61.286584
 20
41.142904
 30
0.0
 10
61.128167
 20
40.826864
 30
0.0
 10
60.884035
 20
40.576608
 30
0.0
 10
60.572654
 20
40.411936
 30
0.0
 10
60.212488
 20
40.352656
 30
0.0
 10
59.852459
 20
40.411936
 30
0.0
 10
59.541230
 20
40.576608
 30
0.0
 10
59.297222
 20
40.826864
 30
0.0
 10
59.138856
 20
41.142904
 30
0.0
 10
56.701875
 20
40.457416
 30
0.0
 10
54.602924
 20
39.117648
 30
0.0
 10
52.972674
 20
37.234312
 30
0.0
 10
51.941800
 20
34.918112
 30
0.0
 10
51.956880
 20
34.918112
 30
0.0
 10
51.971960
 20
34.918112
 30
0.0
 10
51.987040
 20
34.918112
 30
0.0
 10
52.002120
 20
34.918112
 30
0.0
 10
52.108371
 20
34.896672
 30
0.0
 10
52.195117
 20
34.838192
 30
0.0
 10
52.253589
 20
34.751392
 30
0.0
 10
52.275029
 20
34.645048
 30
0.0
 10
52.253613
 20
34.538896
 30
0.0
 10
52.195173
 20
34.452200
 30
0.0
 10
52.108434
 20
34.393720
 30
0.0
 10
52.002116
 20
34.372280
 30
0.0
 10
51.909482
 20
34.372280
 30
0.0
 10
51.816848
 20
34.372280
 30
0.0
 10
51.724214
 20
34.372280
 30
0.0
 10
51.631580
 20
34.372280
 30
0.0
 10
51.407737
 20
34.115984
 30
0.0
 10
51.113794
 20
33.803504
 30
0.0
 10
50.745154
 20
33.426008
 30
0.0
 10
50.297220
 20
32.974640
 30
0.0
 10
50.112905
 20
32.789216
 30
0.0
 10
49.922418
 20
32.596776
 30
0.0
 10
49.726949
 20
32.398432
 30
0.0
 10
49.527684
 20
32.195296
 30
0.0
 10
50.091076
 20
32.195296
 30
0.0
 10
50.654468
 20
32.195296
 30
0.0
 10
51.217860
 20
32.195296
 30
0.0
 10
51.781252
 20
32.195296
 30
0.0
 10
51.887546
 20
32.173856
 30
0.0
 10
51.974229
 20
32.115456
 30
0.0
 10
52.032613
 20
32.028760
 30
0.0
 10
52.054005
 20
31.922536
 30
0.0
 10
52.032613
 20
31.816376
 30
0.0
 10
51.974229
 20
31.729672
 30
0.0
 10
51.887546
 20
31.671192
 30
0.0
 10
51.781252
 20
31.649752
 30
0.0
 10
51.101574
 20
31.649752
 30
0.0
 10
50.421896
 20
31.649752
 30
0.0
 10
49.742218
 20
31.649752
 30
0.0
 10
49.062540
 20
31.649752
 30
0.0
 10
49.048316
 20
31.650552
 30
0.0
 10
49.034756
 20
31.653752
 30
0.0
 10
49.021404
 20
31.656952
 30
0.0
 10
49.007812
 20
31.660152
 30
0.0
 10
48.515175
 20
31.138776
 30
0.0
 10
48.021323
 20
30.597592
 30
0.0
 10
47.533937
 20
30.040720
 30
0.0
 10
47.060700
 20
29.472264
 30
0.0
 10
48.376272
 20
29.472264
 30
0.0
 10
49.691844
 20
29.472264
 30
0.0
 10
51.007416
 20
29.472264
 30
0.0
 10
52.322988
 20
29.472264
 30
0.0
 10
52.429210
 20
29.450824
 30
0.0
 10
52.515902
 20
29.392344
 30
0.0
 10
52.574326
 20
29.305648
 30
0.0
 10
52.595742
 20
29.199488
 30
0.0
 10
52.574326
 20
29.093264
 30
0.0
 10
52.515902
 20
29.006568
 30
0.0
 10
52.429210
 20
28.948168
 30
0.0
 10
52.322988
 20
28.926728
 30
0.0
 10
50.901295
 20
28.926728
 30
0.0
 10
49.479602
 20
28.926728
 30
0.0
 10
48.057909
 20
28.926728
 30
0.0
 10
46.636216
 20
28.926728
 30
0.0
 10
46.238600
 20
28.380336
 30
0.0
 10
45.875929
 20
27.834816
 30
0.0
 10
45.557162
 20
27.293544
 30
0.0
 10
45.291257
 20
26.759872
 30
0.0
 10
47.455279
 20
26.759872
 30
0.0
 10
49.619302
 20
26.759872
 30
0.0
 10
51.783325
 20
26.759872
 30
0.0
 10
53.947348
 20
26.759872
 30
0.0
 10
54.018628
 20
26.750352
 30
0.0
 10
54.084036
 20
26.723072
 30
0.0
 10
54.140188
 20
26.679872
 30
0.0
 10
54.183708
 20
26.622592
 30
0.0
 10
54.211108
 20
26.555952
 30
0.0
 10
54.219988
 20
26.485632
 30
0.0
 10
54.210324
 20
26.415392
 30
0.0
 10
54.182108
 20
26.349072
 30
0.0
 10
52.324225
 20
23.185176
 30
0.0
 10
50.466342
 20
20.021272
 30
0.0
 10
48.608458
 20
16.857376
 30
0.0
 10
46.750575
 20
13.693480
 30
0.0
 10
46.750575
 20
11.114928
 30
0.0
 10
46.750575
 20
8.536368
 30
0.0
 10
46.750575
 20
5.957816
 30
0.0
 10
46.750575
 20
3.379264
 30
0.0
 10
47.082028
 20
3.226528
 30
0.0
 10
47.345371
 20
2.981000
 30
0.0
 10
47.519128
 20
2.663040
 30
0.0
 10
47.581816
 20
2.292984
 30
0.0
 10
47.492651
 20
1.852264
 30
0.0
 10
47.249630
 20
1.492000
 30
0.0
 10
46.889464
 20
1.248912
 30
0.0
 10
46.448862
 20
1.159720
 30
0.0
 10
46.008209
 20
1.248912
 30
0.0
 10
45.647934
 20
1.492000
 30
0.0
 10
45.404804
 20
1.852264
 30
0.0
 10
45.315590
 20
2.292984
 30
0.0
 10
45.383198
 20
2.677944
 30
0.0
 10
45.569997
 20
3.006120
 30
0.0
 10
45.851960
 20
3.253848
 30
0.0
 10
46.205059
 20
3.397456
 30
0.0
 10
46.205059
 20
5.989976
 30
0.0
 10
46.205059
 20
8.582488
 30
0.0
 10
46.205059
 20
11.175008
 30
0.0
 10
46.205059
 20
13.767528
 30
0.0
 10
46.207459
 20
13.803768
 30
0.0
 10
46.214579
 20
13.839128
 30
0.0
 10
46.226315
 20
13.873288
 30
0.0
 10
46.242515
 20
13.905928
 30
0.0
 10
48.049453
 20
16.983048
 30
0.0
 10
49.856390
 20
20.060160
 30
0.0
 10
51.663328
 20
23.137280
 30
0.0
 10
53.470266
 20
26.214400
 30
0.0
 10
51.323793
 20
26.214400
 30
0.0
 10
49.177320
 20
26.214400
 30
0.0
 10
47.030847
 20
26.214400
 30
0.0
 10
44.884374
 20
26.214400
 30
0.0
 10
44.818894
 20
26.222400
 30
0.0
 10
44.758022
 20
26.245440
 30
0.0
 10
44.704358
 20
26.282240
 30
0.0
 10
44.660502
 20
26.331520
 30
0.0
 10
44.629438
 20
26.389840
 30
0.0
 10
44.613726
 20
26.453040
 30
0.0
 10
44.613530
 20
26.518160
 30
0.0
 10
44.629010
 20
26.582400
 30
0.0
 10
45.574717
 20
28.381608
 30
0.0
 10
46.937836
 20
30.187408
 30
0.0
 10
48.467018
 20
31.884792
 30
0.0
 10
49.910913
 20
33.358728
 30
0.0
 10
50.425202
 20
33.877752
 30
0.0
 10
50.884906
 20
34.353808
 30
0.0
 10
51.226604
 20
34.734848
 30
0.0
 10
51.386873
 20
34.968832
 30
0.0
 10
52.474542
 20
37.472432
 30
0.0
 10
54.218985
 20
39.508128
 30
0.0
 10
56.475738
 20
40.953864
 30
0.0
 10
59.100337
 20
41.687560
 30
0.0
 10
59.236365
 20
42.055552
 30
0.0
 10
59.484080
 20
42.350544
 30
0.0
 10
59.817942
 20
42.546568
 30
0.0
 10
60.212409
 20
42.617688
 30
0.0
 10
60.607350
 20
42.546568
 30
0.0
 10
60.941348
 20
42.350504
 30
0.0
 10
61.189052
 20
42.055424
 30
0.0
 10
61.325113
 20
41.687248
 30
0.0
 10
63.951922
 20
40.952952
 30
0.0
 10
66.209468
 20
39.506016
 30
0.0
 10
67.953754
 20
37.467600
 30
0.0
 10
69.040785
 20
34.958864
 30
0.0
 10
69.200725
 20
34.726952
 30
0.0
 10
69.542122
 20
34.348744
 30
0.0
 10
70.001526
 20
33.875880
 30
0.0
 10
70.515481
 20
33.359992
 30
0.0
 10
71.946719
 20
31.906448
 30
0.0
 10
73.464058
 20
30.230976
 30
0.0
 10
74.819752
 20
28.445632
 30
0.0
 10
75.766057
 20
26.662456
 30
0.0
 10
75.782065
 20
26.598296
 30
0.0
 10
75.782106
 20
26.533176
 30
0.0
 10
75.766562
 20
26.469896
 30
0.0
 10
75.735818
 20
26.411416
 30
0.0
 10
75.735825
 20
26.411424
 30
0.0
 10
75.735831
 20
26.411440
 30
0.0
 10
75.735838
 20
26.411448
 30
0.0
 10
75.735865
 20
26.411528
 30
0.0
  0
LWPOLYLINE
  5
10c
100
AcDbEntity
  8
0
 62
7
100
AcDbPolyline
 90
17
 70
0
 10
77.925361
 20
1.160000
 30
0.0
 10
77.473913
 20
1.251216
 30
0.0
 10
77.105009
 20
1.499952
 30
0.0
 10
76.856158
 20
1.868832
 30
0.0
 10
76.764873
 20
2.320480
 30
0.0
 10
76.856158
 20
2.772160
 30
0.0
 10
77.105009
 20
3.140976
 30
0.0
 10
77.473913
 20
3.389624
 30
0.0
 10
77.925361
 20
3.480792
 30
0.0
 10
78.377031
 20
3.389600
 30
0.0
 10
78.745966
 20
3.140912
 30
0.0
 10
78.994758
 20
2.772096
 30
0.0
 10
79.086001
 20
2.320480
 30
0.0
 10
78.994758
 20
1.868832
 30
0.0
 10
78.745966
 20
1.499952
 30
0.0
 10
78.377031
 20
1.251216
 30
0.0
 10
77.925361
 20
1.160000
 30
0.0
  0
LWPOLYLINE
  5
10d
100
AcDbEntity
  8
0
 62
7
100
AcDbPolyline
 90
17
 70
0
 10
52.745617
 20
2.293264
 30
0.0
 10
52.791841
 20
2.064712
 30
0.0
 10
52.917867
 20
1.877976
 30
0.0
 10
53.104706
 20
1.752024
 30
0.0
 10
53.333373
 20
1.705864
 30
0.0
 10
53.561830
 20
1.752024
 30
0.0
 10
53.748519
 20
1.877976
 30
0.0
 10
53.874455
 20
2.064712
 30
0.0
 10
53.920655
 20
2.293264
 30
0.0
 10
53.874455
 20
2.521472
 30
0.0
 10
53.748519
 20
2.708072
 30
0.0
 10
53.561830
 20
2.834008
 30
0.0
 10
53.333373
 20
2.880248
 30
0.0
 10
53.104706
 20
2.834008
 30
0.0
 10
52.917867
 20
2.708072
 30
0.0
 10
52.791841
 20
2.521472
 30
0.0
 10
52.745617
 20
2.293264
 30
0.0
  0
LWPOLYLINE
  5
10e
100
AcDbEntity
  8
0
 62
7
100
AcDbPolyline
 90
18
 70
0
 10
12.430068
 20
44.834672
 30
0.0
 10
12.383820
 20
45.062856
 30
0.0
 10
12.257792
 20
45.249408
 30
0.0
 10
12.071040
 20
45.375288
 30
0.0
 10
11.842624
 20
45.421448
 30
0.0
 10
11.614258
 20
45.375208
 30
0.0
 10
11.427614
 20
45.249288
 30
0.0
 10
11.301695
 20
45.062736
 30
0.0
 10
11.255503
 20
44.834616
 30
0.0
 10
11.301719
 20
44.606184
 30
0.0
 10
11.427675
 20
44.419376
 30
0.0
 10
11.614326
 20
44.293296
 30
0.0
 10
11.842626
 20
44.247056
 30
0.0
 10
12.071042
 20
44.293296
 30
0.0
 10
12.257794
 20
44.419376
 30
0.0
 10
12.383822
 20
44.606184
 30
0.0
 10
12.430070
 20
44.834616
 30
0.0
 10
12.430068
 20
44.834672
 30
0.0
  0
LWPOLYLINE
  5
10f
100
AcDbEntity
  8
0
 62
7
100
AcDbPolyline
 90
17
 70
0
 10
19.732179
 20
2.880224
 30
0.0
 10
19.503830
 20
2.833984
 30
0.0
 10
19.317070
 20
2.708048
 30
0.0
 10
19.191006
 20
2.521448
 30
0.0
 10
19.144742
 20
2.293240
 30
0.0
 10
19.191006
 20
2.064688
 30
0.0
 10
19.317070
 20
1.877952
 30
0.0
 10
19.503830
 20
1.752000
 30
0.0
 10
19.732179
 20
1.705840
 30
0.0
 10
19.960638
 20
1.752000
 30
0.0
 10
20.147327
 20
1.877952
 30
0.0
 10
20.273264
 20
2.064688
 30
0.0
 10
20.319464
 20
2.293240
 30
0.0
 10
20.273288
 20
2.521448
 30
0.0
 10
20.147389
 20
2.708048
 30
0.0
 10
19.960706
 20
2.833984
 30
0.0
 10
19.732179
 20
2.880224
 30
0.0
  0
LWPOLYLINE
  5
110
100
AcDbEntity
  8
0
 62
7
100
AcDbPolyline
 90
18
 70
0
 10
15.369170
 20
44.834672
 30
0.0
 10
15.322954
 20
45.062856
 30
0.0
 10
15.196998
 20
45.249408
 30
0.0
 10
15.010347
 20
45.375288
 30
0.0
 10
14.782047
 20
45.421448
 30
0.0
 10
14.553698
 20
45.375208
 30
0.0
 10
14.366938
 20
45.249288
 30
0.0
 10
14.240874
 20
45.062736
 30
0.0
 10
14.194610
 20
44.834616
 30
0.0
 10
14.240874
 20
44.606184
 30
0.0
 10
14.366938
 20
44.419376
 30
0.0
 10
14.553698
 20
44.293296
 30
0.0
 10
14.782047
 20
44.247056
 30
0.0
 10
15.010347
 20
44.293296
 30
0.0
 10
15.196998
 20
44.419376
 30
0.0
 10
15.322954
 20
44.606184
 30
0.0
 10
15.369170
 20
44.834616
 30
0.0
 10
15.369170
 20
44.834672
 30
0.0
  0
LWPOLYLINE
  5
111
100
AcDbEntity
  8
0
 62
7
100
AcDbPolyline
 90
17
 70
0
 10
5.376824
 20
2.293264
 30
0.0
 10
5.423068
 20
2.064712
 30
0.0
 10
5.549096
 20
1.877976
 30
0.0
 10
5.735848
 20
1.752024
 30
0.0
 10
5.964264
 20
1.705864
 30
0.0
 10
6.192697
 20
1.752024
 30
0.0
 10
6.379333
 20
1.877976
 30
0.0
 10
6.505215
 20
2.064712
 30
0.0
 10
6.551388
 20
2.293264
 30
0.0
 10
6.505215
 20
2.521472
 30
0.0
 10
6.379333
 20
2.708072
 30
0.0
 10
6.192697
 20
2.834008
 30
0.0
 10
5.964264
 20
2.880248
 30
0.0
 10
5.735848
 20
2.834008
 30
0.0
 10
5.549096
 20
2.708072
 30
0.0
 10
5.423068
 20
2.521472
 30
0.0
 10
5.376824
 20
2.293264
 30
0.0
  0
LWPOLYLINE
  5
112
100
AcDbEntity
  8
0
 62
7
100
AcDbPolyline
 90
17
 70
0
 10
12.848222
 20
2.880224
 30
0.0
 10
12.619830
 20
2.833984
 30
0.0
 10
12.433134
 20
2.708048
 30
0.0
 10
12.307159
 20
2.521448
 30
0.0
 10
12.260943
 20
2.293240
 30
0.0
 10
12.307159
 20
2.064688
 30
0.0
 10
12.433134
 20
1.877952
 30
0.0
 10
12.619830
 20
1.752000
 30
0.0
 10
12.848222
 20
1.705840
 30
0.0
 10
13.076638
 20
1.752000
 30
0.0
 10
13.263390
 20
1.877952
 30
0.0
 10
13.389418
 20
2.064688
 30
0.0
 10
13.435666
 20
2.293240
 30
0.0
 10
13.389418
 20
2.521448
 30
0.0
 10
13.263390
 20
2.708048
 30
0.0
 10
13.076638
 20
2.833984
 30
0.0
 10
12.848222
 20
2.880224
 30
0.0
  0
LWPOLYLINE
  5
113
100
AcDbEntity
  8
0
 62
7
100
AcDbPolyline
 90
18
 70
0
 10
9.490807
 20
44.834672
 30
0.0
 10
9.444567
 20
45.062856
 30
0.0
 10
9.318557
 20
45.249408
 30
0.0
 10
9.131852
 20
45.375288
 30
0.0
 10
8.903527
 20
45.421448
 30
0.0
 10
8.675070
 20
45.375208
 30
0.0
 10
8.488379
 20
45.249288
 30
0.0
 10
8.362442
 20
45.062736
 30
0.0
 10
8.316242
 20
44.834616
 30
0.0
 10
8.362442
 20
44.606184
 30
0.0
 10
8.488379
 20
44.419376
 30
0.0
 10
8.675070
 20
44.293296
 30
0.0
 10
8.903527
 20
44.247056
 30
0.0
 10
9.131918
 20
44.293296
 30
0.0
 10
9.318616
 20
44.419376
 30
0.0
 10
9.444590
 20
44.606184
 30
0.0
 10
9.490814
 20
44.834616
 30
0.0
 10
9.490807
 20
44.834672
 30
0.0
  0
LWPOLYLINE
  5
114
100
AcDbEntity
  8
0
 62
7
100
AcDbPolyline
 90
18
 70
0
 10
18.308589
 20
44.834672
 30
0.0
 10
18.262325
 20
45.062856
 30
0.0
 10
18.136260
 20
45.249408
 30
0.0
 10
17.949501
 20
45.375288
 30
0.0
 10
17.721151
 20
45.421448
 30
0.0
 10
17.492785
 20
45.375208
 30
0.0
 10
17.306142
 20
45.249288
 30
0.0
 10
17.180222
 20
45.062736
 30
0.0
 10
17.134030
 20
44.834616
 30
0.0
 10
17.180222
 20
44.606184
 30
0.0
 10
17.306142
 20
44.419376
 30
0.0
 10
17.492785
 20
44.293296
 30
0.0
 10
17.721151
 20
44.247056
 30
0.0
 10
17.949501
 20
44.293296
 30
0.0
 10
18.136260
 20
44.419376
 30
0.0
 10
18.262325
 20
44.606184
 30
0.0
 10
18.308589
 20
44.834616
 30
0.0
 10
18.308589
 20
44.834672
 30
0.0
  0
LWPOLYLINE
  5
115
100
AcDbEntity
  8
0
 62
7
100
AcDbPolyline
 90
18
 70
0
 10
6.551388
 20
44.834672
 30
0.0
 10
6.505216
 20
45.062856
 30
0.0
 10
6.379333
 20
45.249408
 30
0.0
 10
6.192698
 20
45.375288
 30
0.0
 10
5.964265
 20
45.421448
 30
0.0
 10
5.735849
 20
45.375208
 30
0.0
 10
5.549097
 20
45.249288
 30
0.0
 10
5.423069
 20
45.062736
 30
0.0
 10
5.376824
 20
44.834616
 30
0.0
 10
5.423069
 20
44.606184
 30
0.0
 10
5.549097
 20
44.419376
 30
0.0
 10
5.735849
 20
44.293296
 30
0.0
 10
5.964265
 20
44.247056
 30
0.0
 10
6.192698
 20
44.293296
 30
0.0
 10
6.379333
 20
44.419376
 30
0.0
 10
6.505216
 20
44.606184
 30
0.0
 10
6.551388
 20
44.834616
 30
0.0
 10
6.551388
 20
44.834672
 30
0.0
  0
LWPOLYLINE
  5
116
100
AcDbEntity
  8
0
 62
7
100
AcDbPolyline
 90
29
 70
0
 10
60.796393
 20
24.965952
 30
0.0
 10
60.796491
 20
24.967552
 30
0.0
 10
60.796709
 20
24.969152
 30
0.0
 10
60.796926
 20
24.970752
 30
0.0
 10
60.797025
 20
24.972352
 30
0.0
 10
60.746753
 20
25.194648
 30
0.0
 10
60.620931
 20
25.375968
 30
0.0
 10
60.437088
 20
25.498104
 30
0.0
 10
60.212748
 20
25.542824
 30
0.0
 10
59.984476
 20
25.496664
 30
0.0
 10
59.797882
 20
25.370800
 30
0.0
 10
59.671981
 20
25.184296
 30
0.0
 10
59.625789
 20
24.956208
 30
0.0
 10
59.671981
 20
24.727936
 30
0.0
 10
59.797882
 20
24.541336
 30
0.0
 10
59.984476
 20
24.415440
 30
0.0
 10
60.212748
 20
24.369280
 30
0.0
 10
60.440775
 20
24.415440
 30
0.0
 10
60.627184
 20
24.541096
 30
0.0
 10
60.753077
 20
24.727208
 30
0.0
 10
60.799557
 20
24.954696
 30
0.0
 10
60.799105
 20
24.957896
 30
0.0
 10
60.798225
 20
24.960296
 30
0.0
 10
60.797185
 20
24.962696
 30
0.0
 10
60.796385
 20
24.965896
 30
0.0
 10
60.796394
 20
24.965888
 30
0.0
 10
60.796405
 20
24.965872
 30
0.0
 10
60.796415
 20
24.965864
 30
0.0
 10
60.796393
 20
24.965952
 30
0.0
  0
LWPOLYLINE
  5
117
100
AcDbEntity
  8
0
 62
7
100
AcDbPolyline
 90
17
 70
0
 10
21.306387
 20
46.022208
 30
0.0
 10
21.758075
 20
45.931016
 30
0.0
 10
22.126894
 20
45.682312
 30
0.0
 10
22.375542
 20
45.313440
 30
0.0
 10
22.466714
 20
44.861728
 30
0.0
 10
22.375542
 20
44.410136
 30
0.0
 10
22.126894
 20
44.041368
 30
0.0
 10
21.758075
 20
43.792736
 30
0.0
 10
21.306387
 20
43.701568
 30
0.0
 10
20.854925
 20
43.792760
 30
0.0
 10
20.486138
 20
44.041424
 30
0.0
 10
20.237434
 20
44.410200
 30
0.0
 10
20.146220
 20
44.861728
 30
0.0
 10
20.237412
 20
45.313440
 30
0.0
 10
20.486079
 20
45.682312
 30
0.0
 10
20.854858
 20
45.931016
 30
0.0
 10
21.306387
 20
46.022208
 30
0.0
  0
LWPOLYLINE
  5
118
100
AcDbEntity
  8
0
 62
7
100
AcDbPolyline
 90
17
 70
0
 10
2.201511
 20
1.160000
 30
0.0
 10
1.749890
 20
1.251216
 30
0.0
 10
1.381064
 20
1.499952
 30
0.0
 10
1.132379
 20
1.868832
 30
0.0
 10
1.041185
 20
2.320480
 30
0.0
 10
1.132379
 20
2.772160
 30
0.0
 10
1.381064
 20
3.140976
 30
0.0
 10
1.749890
 20
3.389624
 30
0.0
 10
2.201511
 20
3.480792
 30
0.0
 10
2.652949
 20
3.389600
 30
0.0
 10
3.021681
 20
3.140912
 30
0.0
 10
3.270331
 20
2.772096
 30
0.0
 10
3.361520
 20
2.320480
 30
0.0
 10
3.270353
 20
1.868832
 30
0.0
 10
3.021741
 20
1.499952
 30
0.0
 10
2.653015
 20
1.251216
 30
0.0
 10
2.201511
 20
1.160000
 30
0.0
  0
LWPOLYLINE
  5
119
100
AcDbEntity
  8
0
 62
7
100
AcDbPolyline
 90
17
 70
0
 10
2.201511
 20
43.701568
 30
0.0
 10
1.749890
 20
43.792760
 30
0.0
 10
1.381064
 20
44.041424
 30
0.0
 10
1.132379
 20
44.410200
 30
0.0
 10
1.041185
 20
44.861728
 30
0.0
 10
1.132379
 20
45.313440
 30
0.0
 10
1.381064
 20
45.682312
 30
0.0
 10
1.749890
 20
45.931016
 30
0.0
 10
2.201511
 20
46.022208
 30
0.0
 10
2.652949
 20
45.931016
 30
0.0
 10
3.021681
 20
45.682312
 30
0.0
 10
3.270331
 20
45.313440
 30
0.0
 10
3.361520
 20
44.861728
 30
0.0
 10
3.270353
 20
44.410200
 30
0.0
 10
3.021741
 20
44.041424
 30
0.0
 10
2.653015
 20
43.792760
 30
0.0
 10
2.201511
 20
43.701568
 30
0.0
  0
LWPOLYLINE
  5
11a
100
AcDbEntity
  8
0
 62
7
100
AcDbPolyline
 90
41
 70
0
 10
7.097061
 20
2.293264
 30
0.0
 10
7.007899
 20
1.852544
 30
0.0
 10
6.764895
 20
1.492280
 30
0.0
 10
6.404775
 20
1.249192
 30
0.0
 10
5.964264
 20
1.160000
 30
0.0
 10
5.523479
 20
1.249192
 30
0.0
 10
5.163218
 20
1.492280
 30
0.0
 10
4.920162
 20
1.852544
 30
0.0
 10
4.830992
 20
2.293264
 30
0.0
 10
4.901945
 20
2.687408
 30
0.0
 10
5.097579
 20
3.020912
 30
0.0
 10
5.392056
 20
3.268456
 30
0.0
 10
5.759538
 20
3.404696
 30
0.0
 10
5.759538
 20
13.484056
 30
0.0
 10
5.759538
 20
23.563416
 30
0.0
 10
5.759538
 20
33.642776
 30
0.0
 10
5.759538
 20
43.722136
 30
0.0
 10
5.392056
 20
43.858704
 30
0.0
 10
5.097579
 20
44.106504
 30
0.0
 10
4.901945
 20
44.440224
 30
0.0
 10
4.830992
 20
44.834512
 30
0.0
 10
4.920162
 20
45.275000
 30
0.0
 10
5.163218
 20
45.635064
 30
0.0
 10
5.523479
 20
45.878008
 30
0.0
 10
5.964264
 20
45.967144
 30
0.0
 10
6.404775
 20
45.878008
 30
0.0
 10
6.764895
 20
45.635064
 30
0.0
 10
7.007899
 20
45.275000
 30
0.0
 10
7.097061
 20
44.834512
 30
0.0
 10
7.026136
 20
44.440224
 30
0.0
 10
6.830573
 20
44.106504
 30
0.0
 10
6.536198
 20
43.858704
 30
0.0
 10
6.168833
 20
43.722136
 30
0.0
 10
6.168833
 20
33.642776
 30
0.0
 10
6.168833
 20
23.563416
 30
0.0
 10
6.168833
 20
13.484056
 30
0.0
 10
6.168833
 20
3.404696
 30
0.0
 10
6.536198
 20
3.268456
 30
0.0
 10
6.830573
 20
3.020912
 30
0.0
 10
7.026136
 20
2.687408
 30
0.0
 10
7.097061
 20
2.293264
 30
0.0
  0
LWPOLYLINE
  5
11b
100
AcDbEntity
  8
0
 62
7
100
AcDbPolyline
 90
57
 70
0
 10
12.848222
 20
1.160000
 30
0.0
 10
12.407686
 20
1.249192
 30
0.0
 10
12.047511
 20
1.492280
 30
0.0
 10
11.804454
 20
1.852544
 30
0.0
 10
11.715266
 20
2.293264
 30
0.0
 10
11.784682
 20
2.683744
 30
0.0
 10
11.976334
 20
3.015456
 30
0.0
 10
12.265316
 20
3.263696
 30
0.0
 10
12.626724
 20
3.403744
 30
0.0
 10
12.626724
 20
5.987760
 30
0.0
 10
12.626724
 20
8.571768
 30
0.0
 10
12.626724
 20
11.155784
 30
0.0
 10
12.626724
 20
13.739800
 30
0.0
 10
11.644742
 20
17.332648
 30
0.0
 10
10.662760
 20
20.925488
 30
0.0
 10
9.680778
 20
24.518336
 30
0.0
 10
8.698797
 20
28.111184
 30
0.0
 10
8.698797
 20
32.013920
 30
0.0
 10
8.698797
 20
35.916656
 30
0.0
 10
8.698797
 20
39.819400
 30
0.0
 10
8.698797
 20
43.722136
 30
0.0
 10
8.331406
 20
43.858704
 30
0.0
 10
8.036977
 20
44.106504
 30
0.0
 10
7.841360
 20
44.440224
 30
0.0
 10
7.770410
 20
44.834512
 30
0.0
 10
7.859574
 20
45.275000
 30
0.0
 10
8.102595
 20
45.635064
 30
0.0
 10
8.462762
 20
45.878008
 30
0.0
 10
8.903365
 20
45.967144
 30
0.0
 10
9.344034
 20
45.878008
 30
0.0
 10
9.704194
 20
45.635064
 30
0.0
 10
9.947178
 20
45.275000
 30
0.0
 10
10.036321
 20
44.834512
 30
0.0
 10
9.965393
 20
44.440224
 30
0.0
 10
9.769796
 20
44.106504
 30
0.0
 10
9.475326
 20
43.858704
 30
0.0
 10
9.107778
 20
43.722136
 30
0.0
 10
9.107778
 20
39.826200
 30
0.0
 10
9.107778
 20
35.930264
 30
0.0
 10
9.107778
 20
32.034328
 30
0.0
 10
9.107778
 20
28.138392
 30
0.0
 10
10.089760
 20
24.545624
 30
0.0
 10
11.071742
 20
20.952856
 30
0.0
 10
12.053723
 20
17.360096
 30
0.0
 10
13.035705
 20
13.767328
 30
0.0
 10
13.035705
 20
11.177144
 30
0.0
 10
13.035705
 20
8.586960
 30
0.0
 10
13.035705
 20
5.996776
 30
0.0
 10
13.035705
 20
3.406592
 30
0.0
 10
13.409235
 20
3.273344
 30
0.0
 10
13.709154
 20
3.026112
 30
0.0
 10
13.908716
 20
2.690752
 30
0.0
 10
13.981180
 20
2.293104
 30
0.0
 10
13.892104
 20
1.852480
 30
0.0
 10
13.649113
 20
1.492264
 30
0.0
 10
13.288916
 20
1.249192
 30
0.0
 10
12.848222
 20
1.160000
 30
0.0
  0
LWPOLYLINE
  5
11c
100
AcDbEntity
  8
0
 62
7
100
AcDbPolyline
 90
57
 70
0
 10
19.732179
 20
1.160000
 30
0.0
 10
19.291510
 20
1.249192
 30
0.0
 10
18.931350
 20
1.492280
 30
0.0
 10
18.688366
 20
1.852544
 30
0.0
 10
18.599224
 20
2.293264
 30
0.0
 10
18.672728
 20
2.693624
 30
0.0
 10
18.875066
 20
3.030432
 30
0.0
 10
19.178977
 20
3.277376
 30
0.0
 10
19.557197
 20
3.408176
 30
0.0
 10
19.557197
 20
5.984872
 30
0.0
 10
19.557197
 20
8.561568
 30
0.0
 10
19.557197
 20
11.138264
 30
0.0
 10
19.557197
 20
13.714960
 30
0.0
 10
17.591098
 20
17.314016
 30
0.0
 10
15.624998
 20
20.913072
 30
0.0
 10
13.658900
 20
24.512128
 30
0.0
 10
11.692801
 20
28.111184
 30
0.0
 10
11.692801
 20
32.012536
 30
0.0
 10
11.692801
 20
35.913888
 30
0.0
 10
11.692801
 20
39.815248
 30
0.0
 10
11.692801
 20
43.716600
 30
0.0
 10
11.305669
 20
43.841976
 30
0.0
 10
10.993722
 20
44.088360
 30
0.0
 10
10.785572
 20
44.428344
 30
0.0
 10
10.709828
 20
44.834512
 30
0.0
 10
10.798990
 20
45.275000
 30
0.0
 10
11.041994
 20
45.635064
 30
0.0
 10
11.402114
 20
45.878008
 30
0.0
 10
11.842625
 20
45.967144
 30
0.0
 10
12.283319
 20
45.878008
 30
0.0
 10
12.643533
 20
45.635064
 30
0.0
 10
12.886571
 20
45.275000
 30
0.0
 10
12.975738
 20
44.834512
 30
0.0
 10
12.909490
 20
44.453448
 30
0.0
 10
12.726276
 20
44.127928
 30
0.0
 10
12.449381
 20
43.880568
 30
0.0
 10
12.102090
 20
43.734000
 30
0.0
 10
12.102090
 20
39.841344
 30
0.0
 10
12.102090
 20
35.948696
 30
0.0
 10
12.102090
 20
32.056040
 30
0.0
 10
12.102090
 20
28.163392
 30
0.0
 10
14.068190
 20
24.564376
 30
0.0
 10
16.034289
 20
20.965360
 30
0.0
 10
18.000388
 20
17.366344
 30
0.0
 10
19.966487
 20
13.767328
 30
0.0
 10
19.966487
 20
11.175760
 30
0.0
 10
19.966487
 20
8.584192
 30
0.0
 10
19.966487
 20
5.992624
 30
0.0
 10
19.966487
 20
3.401056
 30
0.0
 10
20.323223
 20
3.258552
 30
0.0
 10
20.608095
 20
3.010256
 30
0.0
 10
20.796825
 20
2.680408
 30
0.0
 10
20.865129
 20
2.293264
 30
0.0
 10
20.775964
 20
1.852544
 30
0.0
 10
20.532943
 20
1.492280
 30
0.0
 10
20.172777
 20
1.249192
 30
0.0
 10
19.732179
 20
1.160000
 30
0.0
  0
LWPOLYLINE
  5
11d
100
AcDbEntity
  8
0
 62
7
100
AcDbPolyline
 90
57
 70
0
 10
26.616137
 20
1.160000
 30
0.0
 10
26.175442
 20
1.249192
 30
0.0
 10
25.815229
 20
1.492280
 30
0.0
 10
25.572190
 20
1.852544
 30
0.0
 10
25.483023
 20
2.293264
 30
0.0
 10
25.560735
 20
2.704000
 30
0.0
 10
25.774014
 20
3.046528
 30
0.0
 10
26.093078
 20
3.292376
 30
0.0
 10
26.488143
 20
3.413080
 30
0.0
 10
26.488143
 20
5.983168
 30
0.0
 10
26.488143
 20
8.553256
 30
0.0
 10
26.488143
 20
11.123352
 30
0.0
 10
26.488143
 20
13.693440
 30
0.0
 10
23.510437
 20
17.279360
 30
0.0
 10
20.532731
 20
20.865288
 30
0.0
 10
17.555025
 20
24.451208
 30
0.0
 10
14.577319
 20
28.037136
 30
0.0
 10
14.577319
 20
31.958384
 30
0.0
 10
14.577319
 20
35.879632
 30
0.0
 10
14.577319
 20
39.800888
 30
0.0
 10
14.577319
 20
43.722136
 30
0.0
 10
14.209771
 20
43.858704
 30
0.0
 10
13.915302
 20
44.106504
 30
0.0
 10
13.719705
 20
44.440224
 30
0.0
 10
13.648777
 20
44.834512
 30
0.0
 10
13.737944
 20
45.275000
 30
0.0
 10
13.980982
 20
45.635064
 30
0.0
 10
14.341195
 20
45.878008
 30
0.0
 10
14.781890
 20
45.967144
 30
0.0
 10
15.222401
 20
45.878008
 30
0.0
 10
15.582521
 20
45.635064
 30
0.0
 10
15.825525
 20
45.275000
 30
0.0
 10
15.914687
 20
44.834512
 30
0.0
 10
15.843735
 20
44.440224
 30
0.0
 10
15.648135
 20
44.106504
 30
0.0
 10
15.353753
 20
43.858704
 30
0.0
 10
14.986454
 20
43.722136
 30
0.0
 10
14.986454
 20
39.837864
 30
0.0
 10
14.986454
 20
35.953600
 30
0.0
 10
14.986454
 20
32.069328
 30
0.0
 10
14.986454
 20
28.185064
 30
0.0
 10
17.964120
 20
24.599064
 30
0.0
 10
20.941786
 20
21.013056
 30
0.0
 10
23.919453
 20
17.427056
 30
0.0
 10
26.897119
 20
13.841056
 30
0.0
 10
26.897119
 20
11.227376
 30
0.0
 10
26.897119
 20
8.613696
 30
0.0
 10
26.897119
 20
6.000024
 30
0.0
 10
26.897119
 20
3.386344
 30
0.0
 10
27.236101
 20
3.236392
 30
0.0
 10
27.505978
 20
2.989944
 30
0.0
 10
27.684339
 20
2.668384
 30
0.0
 10
27.748771
 20
2.293104
 30
0.0
 10
27.659701
 20
1.852480
 30
0.0
 10
27.416744
 20
1.492264
 30
0.0
 10
27.056642
 20
1.249192
 30
0.0
 10
26.616137
 20
1.160000
 30
0.0
  0
LWPOLYLINE
  5
11e
100
AcDbEntity
  8
0
 62
7
100
AcDbPolyline
 90
57
 70
0
 10
33.499936
 20
1.160000
 30
0.0
 10
33.059450
 20
1.249192
 30
0.0
 10
32.699383
 20
1.492280
 30
0.0
 10
32.456434
 20
1.852544
 30
0.0
 10
32.367297
 20
2.293264
 30
0.0
 10
32.449107
 20
2.714552
 30
0.0
 10
32.673042
 20
3.062936
 30
0.0
 10
33.006854
 20
3.307592
 30
0.0
 10
33.418298
 20
3.417672
 30
0.0
 10
33.418298
 20
5.982384
 30
0.0
 10
33.418298
 20
8.547088
 30
0.0
 10
33.418298
 20
11.111800
 30
0.0
 10
33.418298
 20
13.676512
 30
0.0
 10
29.442869
 20
17.262432
 30
0.0
 10
25.467439
 20
20.848360
 30
0.0
 10
21.492010
 20
24.434280
 30
0.0
 10
17.516580
 20
28.020208
 30
0.0
 10
17.516580
 20
31.945688
 30
0.0
 10
17.516580
 20
35.871168
 30
0.0
 10
17.516580
 20
39.796656
 30
0.0
 10
17.516580
 20
43.722136
 30
0.0
 10
17.149306
 20
43.858704
 30
0.0
 10
16.854978
 20
44.106504
 30
0.0
 10
16.659432
 20
44.440224
 30
0.0
 10
16.588512
 20
44.834512
 30
0.0
 10
16.677650
 20
45.275000
 30
0.0
 10
16.920599
 20
45.635064
 30
0.0
 10
17.280665
 20
45.878008
 30
0.0
 10
17.721151
 20
45.967144
 30
0.0
 10
18.161846
 20
45.878008
 30
0.0
 10
18.522059
 20
45.635064
 30
0.0
 10
18.765098
 20
45.275000
 30
0.0
 10
18.854265
 20
44.834512
 30
0.0
 10
18.783337
 20
44.440224
 30
0.0
 10
18.587757
 20
44.106504
 30
0.0
 10
18.293334
 20
43.858704
 30
0.0
 10
17.925878
 20
43.722136
 30
0.0
 10
17.925878
 20
39.842096
 30
0.0
 10
17.925878
 20
35.962064
 30
0.0
 10
17.925878
 20
32.082024
 30
0.0
 10
17.925878
 20
28.201992
 30
0.0
 10
21.901307
 20
24.616064
 30
0.0
 10
25.876737
 20
21.030144
 30
0.0
 10
29.852166
 20
17.444216
 30
0.0
 10
33.827596
 20
13.858296
 30
0.0
 10
33.827596
 20
11.236632
 30
0.0
 10
33.827596
 20
8.614960
 30
0.0
 10
33.827596
 20
5.993296
 30
0.0
 10
33.827596
 20
3.371632
 30
0.0
 10
34.149597
 20
3.215104
 30
0.0
 10
34.404792
 20
2.970544
 30
0.0
 10
34.572833
 20
2.656896
 30
0.0
 10
34.633369
 20
2.293104
 30
0.0
 10
34.544152
 20
1.852480
 30
0.0
 10
34.301006
 20
1.492264
 30
0.0
 10
33.940682
 20
1.249192
 30
0.0
 10
33.499936
 20
1.160000
 30
0.0
  0
LWPOLYLINE
  5
11f
100
AcDbEntity
  8
0
 62
7
100
AcDbPolyline
 90
17
 70
0
 10
37.163174
 20
1.160000
 30
0.0
 10
36.711553
 20
1.251216
 30
0.0
 10
36.342726
 20
1.499952
 30
0.0
 10
36.094042
 20
1.868832
 30
0.0
 10
36.002848
 20
2.320480
 30
0.0
 10
36.094065
 20
2.772160
 30
0.0
 10
36.342786
 20
3.140976
 30
0.0
 10
36.711620
 20
3.389624
 30
0.0
 10
37.163174
 20
3.480792
 30
0.0
 10
37.614611
 20
3.389600
 30
0.0
 10
37.983344
 20
3.140912
 30
0.0
 10
38.231994
 20
2.772096
 30
0.0
 10
38.323183
 20
2.320480
 30
0.0
 10
38.231927
 20
1.868832
 30
0.0
 10
37.983285
 20
1.499952
 30
0.0
 10
37.614589
 20
1.251216
 30
0.0
 10
37.163174
 20
1.160000
 30
0.0
  0
LWPOLYLINE
  5
120
100
AcDbEntity
  8
0
 62
7
100
AcDbPolyline
 90
17
 70
0
 10
67.100817
 20
2.880224
 30
0.0
 10
66.872267
 20
2.833984
 30
0.0
 10
66.685531
 20
2.708048
 30
0.0
 10
66.559577
 20
2.521448
 30
0.0
 10
66.513377
 20
2.293240
 30
0.0
 10
66.559577
 20
2.064688
 30
0.0
 10
66.685531
 20
1.877952
 30
0.0
 10
66.872267
 20
1.752000
 30
0.0
 10
67.100817
 20
1.705840
 30
0.0
 10
67.329458
 20
1.752000
 30
0.0
 10
67.516243
 20
1.877952
 30
0.0
 10
67.642214
 20
2.064688
 30
0.0
 10
67.688414
 20
2.293240
 30
0.0
 10
67.642214
 20
2.521448
 30
0.0
 10
67.516243
 20
2.708048
 30
0.0
 10
67.329458
 20
2.833984
 30
0.0
 10
67.100817
 20
2.880224
 30
0.0
  0
LWPOLYLINE
  5
121
100
AcDbEntity
  8
0
 62
7
100
AcDbPolyline
 90
17
 70
0
 10
26.616137
 20
2.880224
 30
0.0
 10
26.387721
 20
2.833984
 30
0.0
 10
26.200969
 20
2.708048
 30
0.0
 10
26.074941
 20
2.521448
 30
0.0
 10
26.028693
 20
2.293240
 30
0.0
 10
26.074941
 20
2.064688
 30
0.0
 10
26.200969
 20
1.877952
 30
0.0
 10
26.387721
 20
1.752000
 30
0.0
 10
26.616137
 20
1.705840
 30
0.0
 10
26.844503
 20
1.752000
 30
0.0
 10
27.031146
 20
1.877952
 30
0.0
 10
27.157066
 20
2.064688
 30
0.0
 10
27.203258
 20
2.293240
 30
0.0
 10
27.157154
 20
2.521448
 30
0.0
 10
27.031264
 20
2.708048
 30
0.0
 10
26.844591
 20
2.833984
 30
0.0
 10
26.616137
 20
2.880224
 30
0.0
  0
LWPOLYLINE
  5
122
100
AcDbEntity
  8
0
 62
7
100
AcDbPolyline
 90
17
 70
0
 10
33.499936
 20
2.880224
 30
0.0
 10
33.271703
 20
2.833984
 30
0.0
 10
33.085045
 20
2.708048
 30
0.0
 10
32.959051
 20
2.521448
 30
0.0
 10
32.912811
 20
2.293240
 30
0.0
 10
32.959051
 20
2.064688
 30
0.0
 10
33.085045
 20
1.877952
 30
0.0
 10
33.271703
 20
1.752000
 30
0.0
 10
33.499936
 20
1.705840
 30
0.0
 10
33.728443
 20
1.752000
 30
0.0
 10
33.915242
 20
1.877952
 30
0.0
 10
34.041287
 20
2.064688
 30
0.0
 10
34.087535
 20
2.293240
 30
0.0
 10
34.041287
 20
2.521448
 30
0.0
 10
33.915242
 20
2.708048
 30
0.0
 10
33.728443
 20
2.833984
 30
0.0
 10
33.499936
 20
2.880224
 30
0.0
  0
ENDSEC
  0
SECTION
  2
OBJECTS
  0
DICTIONARY
  5
C
330
0
100
AcDbDictionary
  3
ACAD_GROUP
350
D
  3
ACAD_MLINESTYLE
350
17
  0
DICTIONARY
  5
D
330
C
100
AcDbDictionary
  0
DICTIONARY
  5
1A
330
C
100
AcDbDictionary
  0
DICTIONARY
  5
17
330
C
100
AcDbDictionary
  3
STANDARD
350
18
  0
DICTIONARY
  5
19
330
C
100
AcDbDictionary
  0
ENDSEC
  0
EOF
